<svg width="181" height="56" viewBox="0 0 181 56" fill="none" xmlns="http://www.w3.org/2000/svg">
<path d="M52 37.6953V18.3047H55.8317V37.6953H52Z" fill="#171719"/>
<path d="M59.7549 37.6953V23.2632H63.3752V24.4543C64.4146 23.4755 65.7007 22.9861 67.2334 22.9861C68.308 22.9861 69.2505 23.2355 70.0609 23.7341C70.8889 24.2142 71.5319 24.8883 71.99 25.7562C72.448 26.6057 72.6771 27.603 72.6771 28.7479V37.6953H69.0567V29.3019C69.0567 28.3601 68.8013 27.6214 68.2904 27.0859C67.7795 26.5319 67.0836 26.2548 66.2028 26.2548C65.5862 26.2548 65.04 26.3841 64.5644 26.6427C64.0887 26.8827 63.6923 27.2336 63.3752 27.6953V37.6953H59.7549Z" fill="#171719"/>
<path d="M76.4499 37.6953V18.3047H85.144C86.3948 18.3047 87.4871 18.5263 88.4208 18.9695C89.3545 19.4127 90.0856 20.0406 90.6141 20.8532C91.1426 21.6473 91.4069 22.5706 91.4069 23.6233C91.4069 24.4728 91.1955 25.2576 90.7727 25.9778C90.3675 26.6796 89.8125 27.2521 89.1078 27.6953C90.0063 28.1385 90.7198 28.7387 91.2483 29.4958C91.7768 30.253 92.0411 31.1117 92.0411 32.072C92.0411 33.1801 91.768 34.1588 91.2219 35.0083C90.6934 35.8578 89.9358 36.5226 88.9493 37.0028C87.9803 37.4644 86.8528 37.6953 85.5668 37.6953H76.4499ZM80.2817 26.2271H84.9062C85.7342 26.2271 86.386 26.024 86.8617 25.6177C87.3549 25.193 87.6016 24.6297 87.6016 23.928C87.6016 23.2262 87.3549 22.6722 86.8617 22.2659C86.386 21.8412 85.7342 21.6288 84.9062 21.6288H80.2817V26.2271ZM80.2817 34.3712H85.2761C86.157 34.3712 86.8617 34.1496 87.3902 33.7064C87.9187 33.2447 88.1829 32.6353 88.1829 31.8781C88.1829 31.1025 87.9187 30.4931 87.3902 30.0499C86.8617 29.5882 86.157 29.3573 85.2761 29.3573H80.2817V34.3712Z" fill="#8065FF"/>
<path d="M104.32 38C102.945 38 101.668 37.7507 100.488 37.2521C99.3075 36.735 98.268 36.024 97.3696 35.1191C96.4887 34.1958 95.7928 33.1339 95.2819 31.9335C94.7887 30.7147 94.542 29.4035 94.542 28C94.542 26.5965 94.7887 25.2946 95.2819 24.0942C95.7928 22.8753 96.4887 21.8135 97.3696 20.9086C98.268 19.9852 99.3075 19.2742 100.488 18.7756C101.668 18.2585 102.945 18 104.32 18C105.694 18 106.971 18.2585 108.151 18.7756C109.349 19.2742 110.389 19.9852 111.269 20.9086C112.168 21.8135 112.864 22.8753 113.357 24.0942C113.85 25.2946 114.097 26.5965 114.097 28C114.097 29.4035 113.85 30.7147 113.357 31.9335C112.864 33.1339 112.168 34.1958 111.269 35.1191C110.389 36.024 109.349 36.735 108.151 37.2521C106.971 37.7507 105.694 38 104.32 38ZM104.32 34.3158C105.165 34.3158 105.94 34.1588 106.645 33.8449C107.35 33.5125 107.966 33.0693 108.495 32.5152C109.023 31.9427 109.437 31.2687 109.737 30.4931C110.036 29.7175 110.186 28.8864 110.186 28C110.186 27.0951 110.036 26.2641 109.737 25.5069C109.437 24.7313 109.023 24.0665 108.495 23.5125C107.966 22.94 107.35 22.4968 106.645 22.1828C105.94 21.8504 105.165 21.6842 104.32 21.6842C103.492 21.6842 102.725 21.8504 102.02 22.1828C101.316 22.4968 100.699 22.94 100.171 23.5125C99.6422 24.0665 99.2282 24.7313 98.9287 25.5069C98.6292 26.2641 98.4795 27.0859 98.4795 27.9723C98.4795 28.8772 98.6292 29.7175 98.9287 30.4931C99.2282 31.2687 99.6422 31.9427 100.171 32.5152C100.699 33.0693 101.316 33.5125 102.02 33.8449C102.725 34.1588 103.492 34.3158 104.32 34.3158Z" fill="#8065FF"/>
<path d="M126.609 38C125.235 38 123.958 37.7507 122.777 37.2521C121.597 36.735 120.557 36.024 119.659 35.1191C118.778 34.1958 118.082 33.1339 117.571 31.9335C117.078 30.7147 116.831 29.4035 116.831 28C116.831 26.5965 117.078 25.2946 117.571 24.0942C118.082 22.8753 118.778 21.8135 119.659 20.9086C120.557 19.9852 121.597 19.2742 122.777 18.7756C123.958 18.2585 125.235 18 126.609 18C127.983 18 129.26 18.2585 130.441 18.7756C131.639 19.2742 132.678 19.9852 133.559 20.9086C134.457 21.8135 135.153 22.8753 135.647 24.0942C136.14 25.2946 136.386 26.5965 136.386 28C136.386 29.4035 136.14 30.7147 135.647 31.9335C135.153 33.1339 134.457 34.1958 133.559 35.1191C132.678 36.024 131.639 36.735 130.441 37.2521C129.26 37.7507 127.983 38 126.609 38ZM126.609 34.3158C127.455 34.3158 128.23 34.1588 128.934 33.8449C129.639 33.5125 130.256 33.0693 130.784 32.5152C131.313 31.9427 131.727 31.2687 132.026 30.4931C132.326 29.7175 132.475 28.8864 132.475 28C132.475 27.0951 132.326 26.2641 132.026 25.5069C131.727 24.7313 131.313 24.0665 130.784 23.5125C130.256 22.94 129.639 22.4968 128.934 22.1828C128.23 21.8504 127.455 21.6842 126.609 21.6842C125.781 21.6842 125.015 21.8504 124.31 22.1828C123.605 22.4968 122.989 22.94 122.46 23.5125C121.932 24.0665 121.518 24.7313 121.218 25.5069C120.919 26.2641 120.769 27.0859 120.769 27.9723C120.769 28.8772 120.919 29.7175 121.218 30.4931C121.518 31.2687 121.932 31.9427 122.46 32.5152C122.989 33.0693 123.605 33.5125 124.31 33.8449C125.015 34.1588 125.781 34.3158 126.609 34.3158Z" fill="#8065FF"/>
<path d="M146.441 37.9723C144.943 37.9723 143.481 37.6861 142.054 37.1136C140.627 36.5226 139.359 35.6916 138.249 34.6205L140.442 31.7396C141.517 32.7368 142.547 33.4571 143.534 33.9003C144.538 34.3435 145.595 34.5651 146.705 34.5651C147.48 34.5651 148.15 34.4728 148.713 34.2881C149.277 34.0849 149.709 33.7987 150.008 33.4294C150.325 33.06 150.484 32.626 150.484 32.1274C150.484 31.4626 150.255 30.9548 149.797 30.6039C149.339 30.2345 148.555 29.9483 147.445 29.7452L143.772 29.0803C142.204 28.8033 141.006 28.2216 140.178 27.3352C139.368 26.4488 138.962 25.3038 138.962 23.9003C138.962 22.6999 139.253 21.6565 139.834 20.7701C140.433 19.8837 141.27 19.2096 142.345 18.7479C143.437 18.2678 144.732 18.0277 146.229 18.0277C147.586 18.0277 148.934 18.2678 150.273 18.7479C151.629 19.2281 152.827 19.8929 153.866 20.7424L151.805 23.7341C149.867 22.1828 147.921 21.4072 145.965 21.4072C145.278 21.4072 144.679 21.4995 144.168 21.6842C143.657 21.8689 143.261 22.1274 142.979 22.4598C142.715 22.7738 142.583 23.1524 142.583 23.5956C142.583 24.1865 142.785 24.6482 143.19 24.9806C143.596 25.2946 144.274 25.5346 145.225 25.7008L148.713 26.3102C150.563 26.6242 151.946 27.2428 152.862 28.1662C153.778 29.0711 154.236 30.2715 154.236 31.7673C154.236 33.0231 153.919 34.1219 153.285 35.0637C152.651 35.9871 151.744 36.7073 150.563 37.2244C149.4 37.723 148.026 37.9723 146.441 37.9723Z" fill="#8065FF"/>
<path d="M161.958 37.6953V21.8504H155.722V18.3047H172V21.8504H165.79V37.6953H161.958Z" fill="#8065FF"/>
<rect y="4" width="48" height="48" rx="24" fill="url(#paint0_linear_1873_6826)"/>
<path d="M23.285 30.8395V37.317C23.285 37.9238 23.285 38.4406 23.3236 38.8108C23.3436 38.9966 23.3794 39.2158 23.4667 39.4118C23.525 39.5527 23.6153 39.6776 23.7301 39.7765C23.8449 39.8753 23.9811 39.9454 24.1276 39.9809C24.2752 40.011 24.4278 40.0055 24.573 39.9646C24.7181 39.9237 24.8518 39.8487 24.963 39.7457C25.1125 39.6045 25.2399 39.441 25.3407 39.2608C25.5295 38.9414 25.7427 38.4725 25.9944 37.9223L26.0145 37.8802L29.9199 29.3152L29.9456 29.2615C30.3476 28.3803 30.6838 27.6443 30.8583 27.0448C31.0385 26.4205 31.0986 25.7658 30.7224 25.1663C30.3462 24.5682 29.7339 24.349 29.1001 24.2531C28.4907 24.1617 27.6911 24.1617 26.734 24.1617H24.7155V17.6842C24.7155 17.0774 24.7155 16.5606 24.6769 16.1904C24.6597 15.9838 24.6115 15.7812 24.5338 15.5894C24.4755 15.4485 24.3852 15.3236 24.2704 15.2247C24.1556 15.1259 24.0194 15.0558 23.8729 15.0203C23.7253 14.989 23.5724 14.9939 23.427 15.0349C23.2817 15.0758 23.1481 15.1514 23.0375 15.2555C22.888 15.3967 22.7606 15.5602 22.6598 15.7404C22.471 16.0598 22.2578 16.5287 22.0061 17.0789L21.986 17.1209L18.0806 25.686L18.0549 25.7397C17.6529 26.6209 17.3167 27.3569 17.1422 27.9564C16.962 28.5807 16.9004 29.2354 17.2781 29.8349C17.6543 30.433 18.2666 30.6522 18.9004 30.7481C19.5098 30.8395 20.3094 30.8395 21.2665 30.8395H23.285Z" fill="#E0F97B"/>
<defs>
<linearGradient id="paint0_linear_1873_6826" x1="24" y1="4" x2="24" y2="52" gradientUnits="userSpaceOnUse">
<stop stop-color="#8065FF"/>
<stop offset="1" stop-color="#4317B4"/>
</linearGradient>
</defs>
</svg>
